<svg width="120" height="120" viewBox="0 0 120 120" fill="none" xmlns="http://www.w3.org/2000/svg">
<path d="M59.9925 1.24902C26.865 1.24902 0 28.219 0 61.489C0 88.099 17.19 110.674 41.04 118.647C44.04 119.202 45.135 117.342 45.135 115.744C45.135 114.312 45.0825 110.524 45.0525 105.499C28.365 109.137 24.84 97.4215 24.84 97.4215C22.1175 90.4615 18.18 88.609 18.18 88.609C12.7275 84.874 18.585 84.949 18.585 84.949C24.6075 85.3765 27.7725 91.159 27.7725 91.159C33.1275 100.362 41.82 97.7065 45.24 96.1615C45.78 92.269 47.3325 89.614 49.05 88.1065C35.73 86.584 21.72 81.4165 21.72 58.339C21.72 51.7615 24.06 46.384 27.9 42.169C27.2775 40.6465 25.2225 34.519 28.485 26.2315C28.485 26.2315 33.525 24.6115 44.985 32.404C49.77 31.069 54.9 30.4015 60.0075 30.379C65.1 30.409 70.2375 31.069 75.03 32.4115C86.4825 24.619 91.515 26.239 91.515 26.239C94.785 34.534 92.73 40.654 92.115 42.1765C95.9625 46.3915 98.28 51.769 98.28 58.3465C98.28 81.484 84.255 86.5765 70.89 88.069C73.0425 89.929 74.9625 93.604 74.9625 99.2215C74.9625 107.277 74.8875 113.772 74.8875 115.744C74.8875 117.357 75.9675 119.232 79.0125 118.639C102.825 110.659 120 88.0915 120 61.489C120 28.219 93.135 1.24902 59.9925 1.24902Z" fill="white"/>
</svg>
